<?xml version="1.0" encoding="UTF-8"?>
<!DOCTYPE svg PUBLIC "-//W3C//DTD SVG 1.1//EN" "http://www.w3.org/Graphics/SVG/1.1/DTD/svg11.dtd">
<svg xmlns="http://www.w3.org/2000/svg" version="1.1" width="366px" height="406px" style="shape-rendering:geometricPrecision; text-rendering:geometricPrecision; image-rendering:optimizeQuality; fill-rule:evenodd; clip-rule:evenodd" xmlns:xlink="http://www.w3.org/1999/xlink">
<g><path style="opacity:0.979" fill="#01007f" d="M 194.5,35.5 C 196.062,39.3918 198.395,42.7251 201.5,45.5C 203.265,48.7089 205.265,51.7089 207.5,54.5C 207.833,55.8333 208.167,57.1667 208.5,58.5C 208.427,60.0269 209.094,61.0269 210.5,61.5C 210.5,61.8333 210.5,62.1667 210.5,62.5C 210.796,64.403 211.463,66.0697 212.5,67.5C 212.427,69.0269 213.094,70.0269 214.5,70.5C 219.813,91.2679 220.813,112.268 217.5,133.5C 216.054,136.086 214.387,138.42 212.5,140.5C 210.05,140.702 207.717,140.369 205.5,139.5C 203.167,138.833 200.833,138.167 198.5,137.5C 192.321,136.833 185.988,136.167 179.5,135.5C 179.058,134.261 178.391,133.261 177.5,132.5C 182.177,105.933 179.344,80.266 169,55.5C 168.044,54.4214 167.211,53.2547 166.5,52C 152.946,47.1343 138.946,44.6343 124.5,44.5C 124.5,92.1667 124.5,139.833 124.5,187.5C 123.566,188.568 123.232,189.901 123.5,191.5C 126.93,191.893 130.096,191.227 133,189.5C 134.47,190.267 135.97,190.933 137.5,191.5C 137.833,191.5 138.167,191.5 138.5,191.5C 138.721,194.067 139.388,196.401 140.5,198.5C 141.523,200.846 142.523,203.179 143.5,205.5C 142.833,205.5 142.5,205.833 142.5,206.5C 140.585,206.216 138.919,206.549 137.5,207.5C 112.134,207.195 86.801,207.528 61.5,208.5C 60.9094,207.849 60.2427,207.182 59.5,206.5C 60.6302,205.378 61.2969,204.044 61.5,202.5C 66.438,198.064 71.2713,193.397 76,188.5C 76.6667,136.833 76.6667,85.1667 76,33.5C 71.0448,27.0892 66.2115,20.5892 61.5,14C 88.3537,12.3435 115.354,12.0102 142.5,13C 162.417,14.7978 179.75,22.2978 194.5,35.5 Z M 128.5,32.5 C 129.833,32.8333 129.833,33.1667 128.5,33.5C 123.786,33.3531 119.119,33.6864 114.5,34.5C 114.667,85.8344 114.5,137.168 114,188.5C 113.5,136.501 113.333,84.5011 113.5,32.5C 118.5,32.5 123.5,32.5 128.5,32.5 Z"/></g>
<g><path style="opacity:0.476" fill="#5353aa" d="M 128.5,32.5 C 130.167,31.1667 131.833,31.1667 133.5,32.5C 131.821,32.2852 130.821,32.9519 130.5,34.5C 129.508,34.6716 128.842,34.3382 128.5,33.5C 129.833,33.1667 129.833,32.8333 128.5,32.5 Z"/></g>
<g><path style="opacity:1" fill="#a2a2d0" d="M 133.5,32.5 C 135.801,33.0604 138.134,33.5604 140.5,34C 137.183,34.4983 133.85,34.665 130.5,34.5C 130.821,32.9519 131.821,32.2852 133.5,32.5 Z"/></g>
<g><path style="opacity:0.923" fill="#080480" d="M 231.5,135.5 C 229.654,137.03 228.654,139.03 228.5,141.5C 228.5,142.167 228.5,142.833 228.5,143.5C 225.5,143.5 222.5,143.5 219.5,143.5C 219.768,141.901 219.434,140.568 218.5,139.5C 223.154,115.566 222.154,91.8992 215.5,68.5C 215.946,65.9899 215.28,63.9899 213.5,62.5C 213.443,61.391 213.11,60.391 212.5,59.5C 212.573,57.9731 211.906,56.9731 210.5,56.5C 210.672,55.5084 210.338,54.8417 209.5,54.5C 207.938,50.6082 205.605,47.2749 202.5,44.5C 199.768,41.4423 197.102,38.4423 194.5,35.5C 194.511,33.3141 195.511,32.4808 197.5,33C 210.439,41.7424 219.939,53.2424 226,67.5C 232.454,89.7529 234.287,112.42 231.5,135.5 Z"/></g>
<g><path style="opacity:1" fill="#615faf" d="M 194.5,35.5 C 197.102,38.4423 199.768,41.4423 202.5,44.5C 201.833,44.5 201.5,44.8333 201.5,45.5C 198.395,42.7251 196.062,39.3918 194.5,35.5 Z"/></g>
<g><path style="opacity:1" fill="#9d9cce" d="M 202.5,44.5 C 205.605,47.2749 207.938,50.6082 209.5,54.5C 208.604,53.4937 207.938,53.4937 207.5,54.5C 205.265,51.7089 203.265,48.7089 201.5,45.5C 201.5,44.8333 201.833,44.5 202.5,44.5 Z"/></g>
<g><path style="opacity:1" fill="#e0e0ef" d="M 209.5,54.5 C 210.338,54.8417 210.672,55.5084 210.5,56.5C 210.427,58.0269 211.094,59.0269 212.5,59.5C 213.11,60.391 213.443,61.391 213.5,62.5C 213.678,63.6948 214.011,64.8615 214.5,66C 214.164,67.0299 213.497,67.5299 212.5,67.5C 212.88,65.302 212.213,63.6354 210.5,62.5C 210.5,62.1667 210.5,61.8333 210.5,61.5C 210.573,59.9731 209.906,58.9731 208.5,58.5C 208.167,57.1667 207.833,55.8333 207.5,54.5C 207.938,53.4937 208.604,53.4937 209.5,54.5 Z"/></g>
<g><path style="opacity:1" fill="#8684c2" d="M 210.5,56.5 C 211.906,56.9731 212.573,57.9731 212.5,59.5C 211.094,59.0269 210.427,58.0269 210.5,56.5 Z"/></g>
<g><path style="opacity:1" fill="#5d5aad" d="M 208.5,58.5 C 209.906,58.9731 210.573,59.9731 210.5,61.5C 209.094,61.0269 208.427,60.0269 208.5,58.5 Z"/></g>
<g><path style="opacity:1" fill="#8481c1" d="M 210.5,62.5 C 212.213,63.6354 212.88,65.302 212.5,67.5C 211.463,66.0697 210.796,64.403 210.5,62.5 Z"/></g>
<g><path style="opacity:0.645" fill="#7f7ebe" d="M 213.5,62.5 C 215.28,63.9899 215.946,65.9899 215.5,68.5C 214.662,68.8417 214.328,69.5084 214.5,70.5C 213.094,70.0269 212.427,69.0269 212.5,67.5C 213.497,67.5299 214.164,67.0299 214.5,66C 214.011,64.8615 213.678,63.6948 213.5,62.5 Z"/></g>
<g><path style="opacity:1" fill="#44116c" d="M 177.5,132.5 C 178.391,133.261 179.058,134.261 179.5,135.5C 185.988,136.167 192.321,136.833 198.5,137.5C 191.087,138.128 184.087,137.461 177.5,135.5C 177.5,134.5 177.5,133.5 177.5,132.5 Z"/></g>
<g><path style="opacity:0.409" fill="#625cab" d="M 231.5,135.5 C 231.5,136.833 231.5,138.167 231.5,139.5C 230.222,139.782 229.222,140.449 228.5,141.5C 228.654,139.03 229.654,137.03 231.5,135.5 Z"/></g>
<g><path style="opacity:0.668" fill="#f26267" d="M 167.5,137.5 C 166.167,138.5 164.833,139.5 163.5,140.5C 156.338,143.827 149.838,148.16 144,153.5C 140.829,160.244 137.662,166.911 134.5,173.5C 137.155,153.845 148.155,141.845 167.5,137.5 Z"/></g>
<g><path style="opacity:1" fill="#d0243a" d="M 177.5,135.5 C 184.087,137.461 191.087,138.128 198.5,137.5C 200.833,138.167 203.167,138.833 205.5,139.5C 191.475,139.257 177.475,139.591 163.5,140.5C 164.833,139.5 166.167,138.5 167.5,137.5C 170.833,136.833 174.167,136.167 177.5,135.5 Z"/></g>
<g><path style="opacity:1" fill="#453693" d="M 217.5,133.5 C 217.5,135.5 217.5,137.5 217.5,139.5C 216.18,140.942 214.514,141.608 212.5,141.5C 212.5,141.167 212.5,140.833 212.5,140.5C 214.387,138.42 216.054,136.086 217.5,133.5 Z"/></g>
<g><path style="opacity:0.695" fill="#f58c8f" d="M 237.5,140.5 C 238.922,141.925 240.589,142.925 242.5,143.5C 241.167,144.167 239.833,144.833 238.5,145.5C 237.833,145.833 237.167,146.167 236.5,146.5C 236.833,144.5 237.167,142.5 237.5,140.5 Z"/></g>
<g><path style="opacity:1" fill="#ec1e26" d="M 205.5,139.5 C 207.717,140.369 210.05,140.702 212.5,140.5C 212.5,140.833 212.5,141.167 212.5,141.5C 217.586,144.408 222.919,145.075 228.5,143.5C 230.532,142.952 231.532,141.619 231.5,139.5C 233.735,139.205 235.735,139.539 237.5,140.5C 237.167,142.5 236.833,144.5 236.5,146.5C 237.167,146.167 237.833,145.833 238.5,145.5C 239.833,145.5 241.167,145.5 242.5,145.5C 239.771,154.294 235.938,162.627 231,170.5C 230.464,174.451 228.964,177.951 226.5,181C 225.552,181.483 224.552,181.649 223.5,181.5C 222.141,180.993 221.141,179.993 220.5,178.5C 219.264,179.246 217.93,179.579 216.5,179.5C 216.737,178.209 216.404,177.209 215.5,176.5C 215.167,176.5 214.833,176.5 214.5,176.5C 214.768,174.901 214.434,173.568 213.5,172.5C 212.341,170.75 210.674,169.75 208.5,169.5C 207.833,168.167 206.833,167.167 205.5,166.5C 203.094,164.087 200.428,162.087 197.5,160.5C 195.5,159.833 193.5,159.167 191.5,158.5C 186.32,157.185 180.986,157.185 175.5,158.5C 172.172,159.103 171.172,160.77 172.5,163.5C 168.895,167.689 167.895,172.522 169.5,178C 169.836,179.03 170.503,179.53 171.5,179.5C 175.267,183.255 178.6,187.255 181.5,191.5C 183.78,193.223 186.447,193.889 189.5,193.5C 192.46,195.396 195.793,196.396 199.5,196.5C 199.833,196.5 200.167,196.5 200.5,196.5C 201.737,198.097 203.404,199.263 205.5,200C 215,201.865 223.667,205.531 231.5,211C 233.167,211.333 234.833,211.667 236.5,212C 241.034,216.199 245.201,220.699 249,225.5C 249.837,228.365 250.67,231.198 251.5,234C 249.527,234.495 247.527,234.662 245.5,234.5C 244.947,230.281 243.78,226.281 242,222.5C 241.218,219.812 239.718,218.812 237.5,219.5C 241.2,224.199 242.866,229.532 242.5,235.5C 230.833,235.5 219.167,235.5 207.5,235.5C 204.535,234.374 201.535,233.374 198.5,232.5C 186.124,228.448 173.457,224.948 160.5,222C 156.732,220.949 153.399,219.116 150.5,216.5C 149.833,216.167 149.167,215.833 148.5,215.5C 147.167,213.5 145.833,211.5 144.5,209.5C 144.5,209.167 144.5,208.833 144.5,208.5C 144.5,207.833 144.5,207.167 144.5,206.5C 148.165,205.707 148.165,204.374 144.5,202.5C 143.5,200.833 142.167,199.5 140.5,198.5C 140.829,195.772 140.163,193.438 138.5,191.5C 138.167,191.5 137.833,191.5 137.5,191.5C 137.5,190.833 137.5,190.167 137.5,189.5C 137.771,187.62 137.104,186.287 135.5,185.5C 134.517,181.702 134.183,177.702 134.5,173.5C 137.662,166.911 140.829,160.244 144,153.5C 149.838,148.16 156.338,143.827 163.5,140.5C 177.475,139.591 191.475,139.257 205.5,139.5 Z"/></g>
<g><path style="opacity:0.762" fill="#be5e77" d="M 217.5,139.5 C 217.833,140.833 218.167,140.833 218.5,139.5C 219.434,140.568 219.768,141.901 219.5,143.5C 222.5,143.5 225.5,143.5 228.5,143.5C 222.919,145.075 217.586,144.408 212.5,141.5C 214.514,141.608 216.18,140.942 217.5,139.5 Z"/></g>
<g><path style="opacity:1" fill="#d88b9d" d="M 231.5,139.5 C 231.532,141.619 230.532,142.952 228.5,143.5C 228.5,142.833 228.5,142.167 228.5,141.5C 229.222,140.449 230.222,139.782 231.5,139.5 Z"/></g>
<g><path style="opacity:1" fill="#f89a9d" d="M 236.5,146.5 C 234.487,152.861 231.654,158.861 228,164.5C 227.424,162.623 227.591,160.789 228.5,159C 230.405,155.122 232.405,151.289 234.5,147.5C 234.957,146.702 235.624,146.369 236.5,146.5 Z"/></g>
<g><path style="opacity:1" fill="#f8a2a5" d="M 187.5,149.5 C 186.5,150.167 185.5,150.833 184.5,151.5C 180.821,151.724 177.154,152.058 173.5,152.5C 172.833,152.5 172.167,152.5 171.5,152.5C 172.681,150.933 174.347,150.099 176.5,150C 180.152,149.501 183.818,149.335 187.5,149.5 Z"/></g>
<g><path style="opacity:1" fill="#f4777c" d="M 187.5,149.5 C 189.96,149.699 192.293,150.365 194.5,151.5C 191.23,152.192 187.897,152.192 184.5,151.5C 185.5,150.833 186.5,150.167 187.5,149.5 Z"/></g>
<g><path style="opacity:1" fill="#57085e" d="M 179.5,159.5 C 183.298,158.517 187.298,158.183 191.5,158.5C 193.5,159.167 195.5,159.833 197.5,160.5C 191.516,159.926 185.516,159.593 179.5,159.5 Z"/></g>
<g><path style="opacity:0.598" fill="#f25f64" d="M 242.5,143.5 C 245.139,144.706 245.972,146.706 245,149.5C 239.234,159.464 234.234,169.798 230,180.5C 228.736,182.607 226.903,183.607 224.5,183.5C 224.167,182.833 223.833,182.167 223.5,181.5C 224.552,181.649 225.552,181.483 226.5,181C 228.964,177.951 230.464,174.451 231,170.5C 235.938,162.627 239.771,154.294 242.5,145.5C 241.167,145.5 239.833,145.5 238.5,145.5C 239.833,144.833 241.167,144.167 242.5,143.5 Z"/></g>
<g><path style="opacity:1" fill="#cc1732" d="M 191.5,158.5 C 187.298,158.183 183.298,158.517 179.5,159.5C 179.167,159.5 178.833,159.5 178.5,159.5C 176.246,160.415 174.246,161.748 172.5,163.5C 171.172,160.77 172.172,159.103 175.5,158.5C 180.986,157.185 186.32,157.185 191.5,158.5 Z"/></g>
<g><path style="opacity:1" fill="#0c017e" d="M 178.5,159.5 C 178.833,159.5 179.167,159.5 179.5,159.5C 185.516,159.593 191.516,159.926 197.5,160.5C 200.428,162.087 203.094,164.087 205.5,166.5C 201.043,176.622 194.376,184.955 185.5,191.5C 184.167,191.5 182.833,191.5 181.5,191.5C 178.6,187.255 175.267,183.255 171.5,179.5C 170.56,175.537 170.393,171.537 171,167.5C 173.705,164.964 176.205,162.297 178.5,159.5 Z"/></g>
<g><path style="opacity:1" fill="#601866" d="M 208.5,169.5 C 210.674,169.75 212.341,170.75 213.5,172.5C 211.883,171.962 210.216,171.629 208.5,171.5C 208.5,170.833 208.5,170.167 208.5,169.5 Z"/></g>
<g><path style="opacity:1" fill="#f25253" d="M 163.5,163.5 C 163.334,168.844 163.501,174.177 164,179.5C 164.5,180.5 165,181.5 165.5,182.5C 165.062,183.506 164.396,183.506 163.5,182.5C 162.614,181.675 162.281,180.675 162.5,179.5C 162.441,176.31 162.107,173.143 161.5,170C 161.497,167.516 162.163,165.349 163.5,163.5 Z"/></g>
<g><path style="opacity:1" fill="#4f0464" d="M 178.5,159.5 C 176.205,162.297 173.705,164.964 171,167.5C 170.393,171.537 170.56,175.537 171.5,179.5C 170.503,179.53 169.836,179.03 169.5,178C 167.895,172.522 168.895,167.689 172.5,163.5C 174.246,161.748 176.246,160.415 178.5,159.5 Z"/></g>
<g><path style="opacity:0.976" fill="#160781" d="M 208.5,171.5 C 210.216,171.629 211.883,171.962 213.5,172.5C 214.434,173.568 214.768,174.901 214.5,176.5C 214.483,178.565 214.15,180.565 213.5,182.5C 210.893,187.374 207.56,191.708 203.5,195.5C 202.391,195.557 201.391,195.89 200.5,196.5C 200.167,196.5 199.833,196.5 199.5,196.5C 199.209,195.351 198.376,194.684 197,194.5C 194.538,193.841 192.038,193.507 189.5,193.5C 189.5,193.167 189.5,192.833 189.5,192.5C 191.902,190.091 194.569,188.091 197.5,186.5C 199.587,185.415 200.92,183.749 201.5,181.5C 203.837,178.113 206.171,174.78 208.5,171.5 Z"/></g>
<g><path style="opacity:1" fill="#fccbcc" d="M 171.5,152.5 C 172.167,152.5 172.833,152.5 173.5,152.5C 170.905,154.816 168.239,157.149 165.5,159.5C 164.37,160.622 163.703,161.956 163.5,163.5C 162.163,165.349 161.497,167.516 161.5,170C 162.107,173.143 162.441,176.31 162.5,179.5C 156.151,167.418 159.151,158.418 171.5,152.5 Z"/></g>
<g><path style="opacity:0.847" fill="#834784" d="M 214.5,176.5 C 214.833,176.5 215.167,176.5 215.5,176.5C 215.5,177.833 215.5,179.167 215.5,180.5C 215.167,181.5 214.5,182.167 213.5,182.5C 214.15,180.565 214.483,178.565 214.5,176.5 Z"/></g>
<g><path style="opacity:0.57" fill="#f58387" d="M 215.5,176.5 C 216.404,177.209 216.737,178.209 216.5,179.5C 217.93,179.579 219.264,179.246 220.5,178.5C 221.141,179.993 222.141,180.993 223.5,181.5C 223.833,182.167 224.167,182.833 224.5,183.5C 221.121,183.485 218.121,182.485 215.5,180.5C 215.5,179.167 215.5,177.833 215.5,176.5 Z"/></g>
<g><path style="opacity:1" fill="#dedced" d="M 205.5,166.5 C 206.833,167.167 207.833,168.167 208.5,169.5C 208.5,170.167 208.5,170.833 208.5,171.5C 206.171,174.78 203.837,178.113 201.5,181.5C 199.413,182.585 198.08,184.251 197.5,186.5C 194.569,188.091 191.902,190.091 189.5,192.5C 187.901,192.768 186.568,192.434 185.5,191.5C 194.376,184.955 201.043,176.622 205.5,166.5 Z"/></g>
<g><path style="opacity:1" fill="#4f48a4" d="M 201.5,181.5 C 200.92,183.749 199.587,185.415 197.5,186.5C 198.08,184.251 199.413,182.585 201.5,181.5 Z"/></g>
<g><path style="opacity:0.536" fill="#db7989" d="M 135.5,185.5 C 137.104,186.287 137.771,187.62 137.5,189.5C 136.209,189.737 135.209,189.404 134.5,188.5C 135.404,187.791 135.737,186.791 135.5,185.5 Z"/></g>
<g><path style="opacity:0.673" fill="#382f94" d="M 124.5,187.5 C 127.625,188.479 130.958,188.813 134.5,188.5C 135.209,189.404 136.209,189.737 137.5,189.5C 137.5,190.167 137.5,190.833 137.5,191.5C 135.97,190.933 134.47,190.267 133,189.5C 130.096,191.227 126.93,191.893 123.5,191.5C 123.232,189.901 123.566,188.568 124.5,187.5 Z"/></g>
<g><path style="opacity:1" fill="#901048" d="M 138.5,191.5 C 140.163,193.438 140.829,195.772 140.5,198.5C 139.388,196.401 138.721,194.067 138.5,191.5 Z"/></g>
<g><path style="opacity:1" fill="#c66580" d="M 181.5,191.5 C 182.833,191.5 184.167,191.5 185.5,191.5C 186.568,192.434 187.901,192.768 189.5,192.5C 189.5,192.833 189.5,193.167 189.5,193.5C 186.447,193.889 183.78,193.223 181.5,191.5 Z"/></g>
<g><path style="opacity:1" fill="#490466" d="M 189.5,193.5 C 192.038,193.507 194.538,193.841 197,194.5C 198.376,194.684 199.209,195.351 199.5,196.5C 195.793,196.396 192.46,195.396 189.5,193.5 Z"/></g>
<g><path style="opacity:0.459" fill="#4444a2" d="M 61.5,202.5 C 61.2969,204.044 60.6302,205.378 59.5,206.5C 60.2427,207.182 60.9094,207.849 61.5,208.5C 59.5714,208.769 57.9047,208.269 56.5,207C 58.0375,205.293 59.7041,203.793 61.5,202.5 Z"/></g>
<g><path style="opacity:1" fill="#5b1d71" d="M 140.5,198.5 C 142.167,199.5 143.5,200.833 144.5,202.5C 144.737,203.791 144.404,204.791 143.5,205.5C 142.523,203.179 141.523,200.846 140.5,198.5 Z"/></g>
<g><path style="opacity:1" fill="#dd5d6c" d="M 144.5,202.5 C 148.165,204.374 148.165,205.707 144.5,206.5C 143.833,206.5 143.5,206.167 143.5,205.5C 144.404,204.791 144.737,203.791 144.5,202.5 Z"/></g>
<g><path style="opacity:1" fill="#daa3b5" d="M 143.5,205.5 C 143.5,206.167 143.833,206.5 144.5,206.5C 144.5,207.167 144.5,207.833 144.5,208.5C 142.473,208.662 140.473,208.495 138.5,208C 140.058,207.79 141.391,207.29 142.5,206.5C 142.5,205.833 142.833,205.5 143.5,205.5 Z"/></g>
<g><path style="opacity:0.925" fill="#04027f" d="M 137.5,208.5 C 139.607,209.468 141.941,209.802 144.5,209.5C 145.833,211.5 147.167,213.5 148.5,215.5C 148.5,216.833 148.5,218.167 148.5,219.5C 121.511,220.573 94.5108,220.739 67.5,220C 65.1523,216.598 64.4856,212.932 65.5,209C 89.4977,208.5 113.498,208.333 137.5,208.5 Z"/></g>
<g><path style="opacity:0.82" fill="#817dbc" d="M 142.5,206.5 C 141.391,207.29 140.058,207.79 138.5,208C 140.473,208.495 142.473,208.662 144.5,208.5C 144.5,208.833 144.5,209.167 144.5,209.5C 141.941,209.802 139.607,209.468 137.5,208.5C 137.5,208.167 137.5,207.833 137.5,207.5C 138.919,206.549 140.585,206.216 142.5,206.5 Z"/></g>
<g><path style="opacity:0.231" fill="#851e5a" d="M 148.5,215.5 C 149.167,215.833 149.833,216.167 150.5,216.5C 150.5,217.5 150.5,218.5 150.5,219.5C 149.833,219.5 149.167,219.5 148.5,219.5C 148.5,218.167 148.5,216.833 148.5,215.5 Z"/></g>
<g><path style="opacity:1" fill="#f68588" d="M 156.5,212.5 C 172.402,216.719 188.402,220.885 204.5,225C 209.275,226.308 213.275,228.808 216.5,232.5C 199.833,225.729 182.167,220.562 163.5,217C 160.728,215.943 158.395,214.443 156.5,212.5 Z"/></g>
<g><path style="opacity:0.793" fill="#ea5559" d="M 203.5,195.5 C 214.489,199.841 225.489,204.341 236.5,209C 240.667,213.167 244.833,217.333 249,221.5C 251.264,225.71 253.098,230.043 254.5,234.5C 251.713,235.477 248.713,235.81 245.5,235.5C 245.5,235.167 245.5,234.833 245.5,234.5C 247.527,234.662 249.527,234.495 251.5,234C 250.67,231.198 249.837,228.365 249,225.5C 245.201,220.699 241.034,216.199 236.5,212C 234.833,211.667 233.167,211.333 231.5,211C 223.667,205.531 215,201.865 205.5,200C 203.404,199.263 201.737,198.097 200.5,196.5C 201.391,195.89 202.391,195.557 203.5,195.5 Z"/></g>
<g><path style="opacity:0.678" fill="#f25c60" d="M 150.5,216.5 C 153.399,219.116 156.732,220.949 160.5,222C 173.457,224.948 186.124,228.448 198.5,232.5C 196.5,232.5 194.5,232.5 192.5,232.5C 184.423,230.907 176.423,229.074 168.5,227C 162.185,225.167 156.185,222.667 150.5,219.5C 150.5,218.5 150.5,217.5 150.5,216.5 Z"/></g>
<g><path style="opacity:1" fill="#ee7275" d="M 245.5,234.5 C 245.5,234.833 245.5,235.167 245.5,235.5C 244.5,235.5 243.5,235.5 242.5,235.5C 242.866,229.532 241.2,224.199 237.5,219.5C 239.718,218.812 241.218,219.812 242,222.5C 243.78,226.281 244.947,230.281 245.5,234.5 Z"/></g>
<g><path style="opacity:0.922" fill="#d7c2c3" d="M 192.5,232.5 C 194.5,232.5 196.5,232.5 198.5,232.5C 201.535,233.374 204.535,234.374 207.5,235.5C 202.305,235.821 197.305,235.487 192.5,234.5C 192.5,233.833 192.5,233.167 192.5,232.5 Z"/></g>
<g><path style="opacity:0.672" fill="#1b1111" d="M 254.5,234.5 C 273.836,234.333 293.17,234.5 312.5,235C 313.38,236.356 313.714,237.856 313.5,239.5C 312.1,240.1 311.1,241.1 310.5,242.5C 310.698,240.425 310.865,238.425 311,236.5C 276.5,237.83 242,237.83 207.5,236.5C 207.5,236.167 207.5,235.833 207.5,235.5C 219.167,235.5 230.833,235.5 242.5,235.5C 243.5,235.5 244.5,235.5 245.5,235.5C 248.713,235.81 251.713,235.477 254.5,234.5 Z"/></g>
<g><path style="opacity:1" fill="#4a4848" d="M 189.5,234.5 C 190.5,234.5 191.5,234.5 192.5,234.5C 197.305,235.487 202.305,235.821 207.5,235.5C 207.5,235.833 207.5,236.167 207.5,236.5C 202.156,236.666 196.823,236.499 191.5,236C 190.584,235.722 189.918,235.222 189.5,234.5 Z"/></g>
<g><path style="opacity:0.975" fill="#030202" d="M 189.5,234.5 C 189.918,235.222 190.584,235.722 191.5,236C 196.823,236.499 202.156,236.666 207.5,236.5C 242,237.83 276.5,237.83 311,236.5C 310.865,238.425 310.698,240.425 310.5,242.5C 307.603,246.404 305.603,250.737 304.5,255.5C 303.503,255.47 302.836,255.97 302.5,257C 300.257,262.14 298.091,267.306 296,272.5C 295.329,271.748 294.496,271.414 293.5,271.5C 292.5,271.167 291.833,270.5 291.5,269.5C 291.587,262.85 288.253,259.183 281.5,258.5C 280.261,258.942 279.261,259.609 278.5,260.5C 274.901,259.656 271.234,259.323 267.5,259.5C 267.333,294.168 267.5,328.835 268,363.5C 273.743,370.654 279.243,377.988 284.5,385.5C 284.291,386.086 283.957,386.586 283.5,387C 264.167,387.667 244.833,387.667 225.5,387C 222.773,384.759 222.106,382.093 223.5,379C 239.167,378.667 254.833,378.333 270.5,378C 253.968,377.188 237.468,377.355 221,378.5C 219.941,378.37 219.108,377.87 218.5,377C 219.705,375.624 221.038,374.458 222.5,373.5C 226.464,370.037 230.298,366.37 234,362.5C 234.5,335.169 234.667,307.835 234.5,280.5C 235.13,272.757 234.463,265.424 232.5,258.5C 229.5,257.167 226.5,257.167 223.5,258.5C 222.081,259.451 220.415,259.784 218.5,259.5C 214.5,260.167 212.167,262.5 211.5,266.5C 210.308,268.113 209.308,269.78 208.5,271.5C 207.549,272.919 207.216,274.585 207.5,276.5C 204.918,276.975 202.918,276.308 201.5,274.5C 202.461,272.735 202.795,270.735 202.5,268.5C 204.087,261.421 208.087,256.421 214.5,253.5C 219.822,252.971 225.156,252.471 230.5,252C 231.973,251.29 232.64,250.124 232.5,248.5C 227.305,248.179 222.305,248.513 217.5,249.5C 215.901,249.232 214.568,249.566 213.5,250.5C 212.833,250.5 212.5,250.833 212.5,251.5C 208.062,251.933 205.062,254.267 203.5,258.5C 201.965,260.968 200.965,263.635 200.5,266.5C 199.532,268.607 199.198,270.941 199.5,273.5C 197.142,273.747 195.142,273.081 193.5,271.5C 193.715,269.821 193.048,268.821 191.5,268.5C 191.634,266.708 191.301,265.042 190.5,263.5C 190.611,262.883 190.944,262.383 191.5,262C 191.331,258.15 189.664,255.316 186.5,253.5C 183.384,248.931 181.051,243.931 179.5,238.5C 179.57,237.228 179.903,236.062 180.5,235C 183.482,234.502 186.482,234.335 189.5,234.5 Z"/></g>
<g><path style="opacity:1" fill="#ec1e25" d="M 154.5,250.5 C 155.631,253.255 157.298,255.589 159.5,257.5C 160.048,259.394 161.048,261.06 162.5,262.5C 163.5,263.833 164.5,263.833 165.5,262.5C 163.255,260.322 161.255,257.988 159.5,255.5C 158.248,252.837 157.248,250.17 156.5,247.5C 155.911,245.648 155.244,243.815 154.5,242C 154.728,241.601 155.062,241.435 155.5,241.5C 157.582,241.472 159.416,242.139 161,243.5C 164.246,254.429 170.913,262.762 181,268.5C 181.49,269.793 181.657,271.127 181.5,272.5C 185.6,272.237 189.6,272.57 193.5,273.5C 195.379,274.341 197.379,274.675 199.5,274.5C 199.833,274.5 200.167,274.5 200.5,274.5C 200.5,275.5 200.5,276.5 200.5,277.5C 203.167,277.5 205.833,277.5 208.5,277.5C 208.5,275.5 208.5,273.5 208.5,271.5C 209.308,269.78 210.308,268.113 211.5,266.5C 213.984,264.403 216.318,262.07 218.5,259.5C 220.415,259.784 222.081,259.451 223.5,258.5C 226.167,258.5 228.833,258.5 231.5,258.5C 231.5,261.833 231.5,265.167 231.5,268.5C 224.097,276.868 214.764,281.535 203.5,282.5C 198.167,282.5 192.833,282.5 187.5,282.5C 182.807,282.46 178.141,282.127 173.5,281.5C 167.536,279.838 161.536,278.171 155.5,276.5C 147.363,274.882 139.363,275.215 131.5,277.5C 130.5,277.5 129.5,277.5 128.5,277.5C 128.34,275.801 128.506,274.134 129,272.5C 135.949,261.048 141.783,249.048 146.5,236.5C 147.748,237.04 148.915,237.707 150,238.5C 149.731,243.323 151.231,247.323 154.5,250.5 Z"/></g>
<g><path style="opacity:0.996" fill="#121212" d="M 298.5,277.5 C 298.337,275.143 298.503,272.81 299,270.5C 300.992,265.512 302.826,260.512 304.5,255.5C 307.98,250.502 311.647,245.502 315.5,240.5C 315.435,240.062 315.601,239.728 316,239.5C 319.233,241.355 320.566,244.021 320,247.5C 316.081,253.67 312.414,260.003 309,266.5C 308.582,270.854 307.248,274.854 305,278.5C 302.627,279.543 300.46,279.21 298.5,277.5 Z"/></g>
<g><path style="opacity:1" fill="#747474" d="M 313.5,239.5 C 313.842,240.338 314.508,240.672 315.5,240.5C 311.647,245.502 307.98,250.502 304.5,255.5C 305.603,250.737 307.603,246.404 310.5,242.5C 311.1,241.1 312.1,240.1 313.5,239.5 Z"/></g>
<g><path style="opacity:1" fill="#fdd7d7" d="M 152.5,238.5 C 153.391,239.11 154.391,239.443 155.5,239.5C 155.5,240.167 155.5,240.833 155.5,241.5C 155.062,241.435 154.728,241.601 154.5,242C 155.244,243.815 155.911,245.648 156.5,247.5C 156.715,249.179 156.048,250.179 154.5,250.5C 153.797,247.422 152.797,244.422 151.5,241.5C 151.52,240.274 151.853,239.274 152.5,238.5 Z"/></g>
<g><path style="opacity:1" fill="#373737" d="M 217.5,249.5 C 222.305,248.513 227.305,248.179 232.5,248.5C 232.64,250.124 231.973,251.29 230.5,252C 225.156,252.471 219.822,252.971 214.5,253.5C 215.93,252.463 217.597,251.796 219.5,251.5C 222.978,251.816 226.312,251.316 229.5,250C 225.514,249.501 221.514,249.334 217.5,249.5 Z"/></g>
<g><path style="opacity:1" fill="#808080" d="M 213.5,250.5 C 214.568,249.566 215.901,249.232 217.5,249.5C 221.514,249.334 225.514,249.501 229.5,250C 226.312,251.316 222.978,251.816 219.5,251.5C 217.735,250.539 215.735,250.205 213.5,250.5 Z"/></g>
<g><path style="opacity:1" fill="#f9a3a5" d="M 156.5,247.5 C 157.248,250.17 158.248,252.837 159.5,255.5C 159.5,256.167 159.5,256.833 159.5,257.5C 157.298,255.589 155.631,253.255 154.5,250.5C 156.048,250.179 156.715,249.179 156.5,247.5 Z"/></g>
<g><path style="opacity:1" fill="#9b9b9b" d="M 276.5,250.5 C 277.5,250.5 278.5,250.5 279.5,250.5C 277.393,251.468 275.059,251.802 272.5,251.5C 270.031,250.683 267.365,250.183 264.5,250C 268.554,249.306 272.554,249.473 276.5,250.5 Z"/></g>
<g><path style="opacity:1" fill="#161616" d="M 279.5,250.5 C 280.043,250.56 280.376,250.893 280.5,251.5C 273.866,252.497 267.2,252.83 260.5,252.5C 260.832,289.67 260.498,326.67 259.5,363.5C 259.5,326.167 259.5,288.833 259.5,251.5C 263.833,251.5 268.167,251.5 272.5,251.5C 275.059,251.802 277.393,251.468 279.5,250.5 Z"/></g>
<g><path style="opacity:1" fill="#959595" d="M 212.5,251.5 C 209.26,253.392 206.26,255.726 203.5,258.5C 205.062,254.267 208.062,251.933 212.5,251.5 Z"/></g>
<g><path style="opacity:0.656" fill="#f1595e" d="M 155.5,239.5 C 158.652,238.959 161.152,239.959 163,242.5C 165.675,250.504 170.175,257.338 176.5,263C 179.128,264.626 181.461,266.626 183.5,269C 185.473,269.495 187.473,269.662 189.5,269.5C 190.287,271.104 191.62,271.771 193.5,271.5C 193.5,272.167 193.5,272.833 193.5,273.5C 189.6,272.57 185.6,272.237 181.5,272.5C 181.657,271.127 181.49,269.793 181,268.5C 170.913,262.762 164.246,254.429 161,243.5C 159.416,242.139 157.582,241.472 155.5,241.5C 155.5,240.833 155.5,240.167 155.5,239.5 Z"/></g>
<g><path style="opacity:0.635" fill="#353535" d="M 186.5,253.5 C 189.664,255.316 191.331,258.15 191.5,262C 190.944,262.383 190.611,262.883 190.5,263.5C 187.968,260.764 186.635,257.43 186.5,253.5 Z"/></g>
<g><path style="opacity:1" fill="#a98383" d="M 218.5,259.5 C 216.318,262.07 213.984,264.403 211.5,266.5C 212.167,262.5 214.5,260.167 218.5,259.5 Z"/></g>
<g><path style="opacity:1" fill="#941317" d="M 223.5,258.5 C 226.5,257.167 229.5,257.167 232.5,258.5C 232.5,261.833 232.5,265.167 232.5,268.5C 232.167,268.5 231.833,268.5 231.5,268.5C 231.5,265.167 231.5,261.833 231.5,258.5C 228.833,258.5 226.167,258.5 223.5,258.5 Z"/></g>
<g><path style="opacity:0.599" fill="#303030" d="M 291.5,269.5 C 289.157,263.814 284.824,260.814 278.5,260.5C 279.261,259.609 280.261,258.942 281.5,258.5C 288.253,259.183 291.587,262.85 291.5,269.5 Z"/></g>
<g><path style="opacity:1" fill="#f2575a" d="M 159.5,255.5 C 161.255,257.988 163.255,260.322 165.5,262.5C 164.5,263.833 163.5,263.833 162.5,262.5C 161.048,261.06 160.048,259.394 159.5,257.5C 159.5,256.833 159.5,256.167 159.5,255.5 Z"/></g>
<g><path style="opacity:1" fill="#dcdcdc" d="M 213.5,250.5 C 215.735,250.205 217.735,250.539 219.5,251.5C 217.597,251.796 215.93,252.463 214.5,253.5C 208.087,256.421 204.087,261.421 202.5,268.5C 201.167,268.5 200.5,267.833 200.5,266.5C 200.965,263.635 201.965,260.968 203.5,258.5C 206.26,255.726 209.26,253.392 212.5,251.5C 212.5,250.833 212.833,250.5 213.5,250.5 Z"/></g>
<g><path style="opacity:0.629" fill="#f1595e" d="M 152.5,238.5 C 151.853,239.274 151.52,240.274 151.5,241.5C 152.797,244.422 153.797,247.422 154.5,250.5C 151.231,247.323 149.731,243.323 150,238.5C 148.915,237.707 147.748,237.04 146.5,236.5C 141.783,249.048 135.949,261.048 129,272.5C 128.506,274.134 128.34,275.801 128.5,277.5C 129.5,277.5 130.5,277.5 131.5,277.5C 129.362,278.808 127.362,278.475 125.5,276.5C 125.343,275.127 125.51,273.793 126,272.5C 133.343,260.822 139.343,248.489 144,235.5C 144.689,234.643 145.522,233.977 146.5,233.5C 148.941,234.709 150.941,236.376 152.5,238.5 Z"/></g>
<g><path style="opacity:1" fill="#767676" d="M 304.5,255.5 C 302.826,260.512 300.992,265.512 299,270.5C 298.503,272.81 298.337,275.143 298.5,277.5C 296.367,275.909 294.701,273.909 293.5,271.5C 294.496,271.414 295.329,271.748 296,272.5C 298.091,267.306 300.257,262.14 302.5,257C 302.836,255.97 303.503,255.47 304.5,255.5 Z"/></g>
<g><path style="opacity:0.586" fill="#b16667" d="M 191.5,268.5 C 193.048,268.821 193.715,269.821 193.5,271.5C 191.62,271.771 190.287,271.104 189.5,269.5C 190.492,269.672 191.158,269.338 191.5,268.5 Z"/></g>
<g><path style="opacity:1" fill="#280e0c" d="M 232.5,258.5 C 234.463,265.424 235.13,272.757 234.5,280.5C 233.833,280.5 233.167,280.5 232.5,280.5C 232.5,277.5 232.5,274.5 232.5,271.5C 232.5,270.5 232.5,269.5 232.5,268.5C 232.5,265.167 232.5,261.833 232.5,258.5 Z"/></g>
<g><path style="opacity:1" fill="#5a0f12" d="M 193.5,271.5 C 195.142,273.081 197.142,273.747 199.5,273.5C 199.5,273.833 199.5,274.167 199.5,274.5C 197.379,274.675 195.379,274.341 193.5,273.5C 193.5,272.833 193.5,272.167 193.5,271.5 Z"/></g>
<g><path style="opacity:1" fill="#827575" d="M 200.5,266.5 C 200.5,267.833 201.167,268.5 202.5,268.5C 202.795,270.735 202.461,272.735 201.5,274.5C 201.167,274.5 200.833,274.5 200.5,274.5C 200.167,274.5 199.833,274.5 199.5,274.5C 199.5,274.167 199.5,273.833 199.5,273.5C 199.198,270.941 199.532,268.607 200.5,266.5 Z"/></g>
<g><path style="opacity:1" fill="#fab5b7" d="M 155.5,276.5 C 156.506,277.396 156.506,278.062 155.5,278.5C 149.522,277.591 143.522,277.425 137.5,278C 135.148,278.24 133.148,279.073 131.5,280.5C 130.833,281.167 130.167,281.833 129.5,282.5C 127.748,280.754 126.415,278.754 125.5,276.5C 127.362,278.475 129.362,278.808 131.5,277.5C 139.363,275.215 147.363,274.882 155.5,276.5 Z"/></g>
<g><path style="opacity:1" fill="#4f0b0e" d="M 208.5,271.5 C 208.5,273.5 208.5,275.5 208.5,277.5C 205.833,277.5 203.167,277.5 200.5,277.5C 200.5,276.5 200.5,275.5 200.5,274.5C 200.833,274.5 201.167,274.5 201.5,274.5C 202.918,276.308 204.918,276.975 207.5,276.5C 207.216,274.585 207.549,272.919 208.5,271.5 Z"/></g>
<g><path style="opacity:1" fill="#f68387" d="M 155.5,276.5 C 161.536,278.171 167.536,279.838 173.5,281.5C 172.761,281.369 172.094,281.536 171.5,282C 172.416,282.278 173.082,282.778 173.5,283.5C 167.659,281.797 161.659,280.463 155.5,279.5C 155.5,279.167 155.5,278.833 155.5,278.5C 156.506,278.062 156.506,277.396 155.5,276.5 Z"/></g>
<g><path style="opacity:1" fill="#464646" d="M 258.5,250.5 C 258.168,288.337 258.502,326.004 259.5,363.5C 259.44,364.043 259.107,364.376 258.5,364.5C 257.17,326.335 257.17,288.335 258.5,250.5 Z"/></g>
<g><path style="opacity:1" fill="#f04142" d="M 155.5,278.5 C 155.5,278.833 155.5,279.167 155.5,279.5C 147.466,279.302 139.466,279.635 131.5,280.5C 133.148,279.073 135.148,278.24 137.5,278C 143.522,277.425 149.522,277.591 155.5,278.5 Z"/></g>
<g><path style="opacity:0.678" fill="#161515" d="M 232.5,280.5 C 233.167,280.5 233.833,280.5 234.5,280.5C 234.667,307.835 234.5,335.169 234,362.5C 230.298,366.37 226.464,370.037 222.5,373.5C 224.289,369.188 227.123,365.521 231,362.5C 231.5,336.169 231.667,309.835 231.5,283.5C 232.404,282.791 232.737,281.791 232.5,280.5 Z"/></g>
<g><path style="opacity:1" fill="#f8abad" d="M 231.5,268.5 C 231.833,268.5 232.167,268.5 232.5,268.5C 232.5,269.5 232.5,270.5 232.5,271.5C 231.833,271.5 231.5,271.833 231.5,272.5C 224.355,278.905 216.022,282.905 206.5,284.5C 203.813,284.664 201.146,284.497 198.5,284C 200.382,283.802 202.048,283.302 203.5,282.5C 214.764,281.535 224.097,276.868 231.5,268.5 Z"/></g>
<g><path style="opacity:0.573" fill="#f15358" d="M 131.5,280.5 C 131.383,282.484 132.05,284.15 133.5,285.5C 135.638,284.757 137.804,284.09 140,283.5C 141.459,283.808 142.626,284.475 143.5,285.5C 140.105,286.56 136.605,287.56 133,288.5C 130.091,287.571 128.925,285.571 129.5,282.5C 130.167,281.833 130.833,281.167 131.5,280.5 Z"/></g>
<g><path style="opacity:0.91" fill="#ea565a" d="M 232.5,271.5 C 232.5,274.5 232.5,277.5 232.5,280.5C 232.737,281.791 232.404,282.791 231.5,283.5C 223.931,288.733 215.598,292.066 206.5,293.5C 207.306,292.272 208.306,291.272 209.5,290.5C 210.802,289.193 212.135,289.193 213.5,290.5C 219.72,287.766 225.553,284.433 231,280.5C 231.497,277.854 231.664,275.187 231.5,272.5C 231.5,271.833 231.833,271.5 232.5,271.5 Z"/></g>
<g><path style="opacity:1" fill="#ee1f26" d="M 231.5,272.5 C 231.664,275.187 231.497,277.854 231,280.5C 225.553,284.433 219.72,287.766 213.5,290.5C 212.135,289.193 210.802,289.193 209.5,290.5C 199.167,290.5 188.833,290.5 178.5,290.5C 173.942,288.503 169.109,287.17 164,286.5C 163.127,286.735 162.293,287.069 161.5,287.5C 158.534,285.303 155.201,283.97 151.5,283.5C 150.261,283.942 149.261,284.609 148.5,285.5C 146.833,285.5 145.167,285.5 143.5,285.5C 142.626,284.475 141.459,283.808 140,283.5C 137.804,284.09 135.638,284.757 133.5,285.5C 132.05,284.15 131.383,282.484 131.5,280.5C 139.466,279.635 147.466,279.302 155.5,279.5C 161.659,280.463 167.659,281.797 173.5,283.5C 177.206,284.087 180.873,284.754 184.5,285.5C 187.146,286.164 189.979,286.498 193,286.5C 197.758,286.634 202.258,285.968 206.5,284.5C 216.022,282.905 224.355,278.905 231.5,272.5 Z"/></g>
<g><path style="opacity:1" fill="#f9a8aa" d="M 173.5,281.5 C 178.141,282.127 182.807,282.46 187.5,282.5C 190.675,283.429 194.009,284.262 197.5,285C 193.179,285.499 188.846,285.666 184.5,285.5C 180.873,284.754 177.206,284.087 173.5,283.5C 173.082,282.778 172.416,282.278 171.5,282C 172.094,281.536 172.761,281.369 173.5,281.5 Z"/></g>
<g><path style="opacity:1" fill="#f3686b" d="M 187.5,282.5 C 192.833,282.5 198.167,282.5 203.5,282.5C 202.048,283.302 200.382,283.802 198.5,284C 201.146,284.497 203.813,284.664 206.5,284.5C 202.258,285.968 197.758,286.634 193,286.5C 189.979,286.498 187.146,286.164 184.5,285.5C 188.846,285.666 193.179,285.499 197.5,285C 194.009,284.262 190.675,283.429 187.5,282.5 Z"/></g>
<g><path style="opacity:0.798" fill="#f1565b" d="M 178.5,290.5 C 179.833,291.5 181.167,292.5 182.5,293.5C 171.007,291.306 159.674,288.639 148.5,285.5C 149.261,284.609 150.261,283.942 151.5,283.5C 155.201,283.97 158.534,285.303 161.5,287.5C 162.293,287.069 163.127,286.735 164,286.5C 169.109,287.17 173.942,288.503 178.5,290.5 Z"/></g>
<g><path style="opacity:1" fill="#f03f45" d="M 178.5,290.5 C 188.833,290.5 199.167,290.5 209.5,290.5C 208.306,291.272 207.306,292.272 206.5,293.5C 198.5,293.5 190.5,293.5 182.5,293.5C 181.167,292.5 179.833,291.5 178.5,290.5 Z"/></g>
<g><path style="opacity:1" fill="#727272" d="M 276.5,250.5 C 272.554,249.473 268.554,249.306 264.5,250C 267.365,250.183 270.031,250.683 272.5,251.5C 268.167,251.5 263.833,251.5 259.5,251.5C 259.5,288.833 259.5,326.167 259.5,363.5C 258.502,326.004 258.168,288.337 258.5,250.5C 258.611,249.883 258.944,249.383 259.5,249C 264.833,248.333 270.167,248.333 275.5,249C 276.056,249.383 276.389,249.883 276.5,250.5 Z"/></g>
</svg>
