<svg xmlns="http://www.w3.org/2000/svg" viewBox="0 0 24 24" width="24" height="24" role="img" aria-label="WhatsApp">
  <path fill="#25D366" d="M12.04 2C6.55 2 2.08 6.47 2.08 11.96c0 1.94.52 3.74 1.5 5.3L2 22l4.86-1.55c1.49.81 3.16 1.23 4.88 1.23h.01c5.49 0 9.96-4.47 9.96-9.96C21.71 6.47 17.5 2 12.04 2Zm0 18.02h-.01c-1.54 0-3.04-.41-4.35-1.19l-.31-.18-2.88.92.94-2.81-.2-.29a7.98 7.98 0 0 1-1.28-4.33c0-4.4 3.58-7.98 7.99-7.98 4.41 0 7.99 3.58 7.99 7.98 0 4.41-3.58 7.98-7.89 7.98Zm4.66-6.2c-.25-.12-1.49-.73-1.72-.81-.23-.08-.4-.12-.57.12-.17.25-.65.81-.8.98-.15.17-.29.19-.54.06-.25-.12-1.05-.39-2-1.24-.74-.66-1.23-1.47-1.37-1.72-.14-.25-.01-.38.11-.5.11-.11.25-.29.37-.43.12-.14.17-.25.25-.41.08-.17.04-.31-.02-.43-.06-.12-.57-1.37-.78-1.88-.2-.48-.41-.41-.57-.42h-.49c-.17 0-.43.06-.66.31-.23.25-.87.85-.87 2.08 0 1.23.9 2.42 1.03 2.58.12.17 1.77 2.71 4.29 3.8.6.26 1.07.42 1.44.54.6.19 1.14.16 1.57.1.48-.07 1.49-.61 1.7-1.2.21-.59.21-1.09.15-1.2-.06-.11-.23-.17-.48-.29Z"/>
</svg>
