<?xml version="1.0" encoding="UTF-8" standalone="no"?>
<!DOCTYPE svg PUBLIC "-//W3C//DTD SVG 1.1//EN" "http://www.w3.org/Graphics/SVG/1.1/DTD/svg11.dtd">
<svg xmlns="http://www.w3.org/2000/svg" version="1.1" viewBox="0.00 0.00 547.00 456.00">
<g stroke-width="2.00" fill="none" stroke-linecap="butt">
<path stroke="#d36b92" vector-effect="non-scaling-stroke" d="
  M 203.13 199.26
  Q 204.04 199.78 204.69 201.02"
/>
<path stroke="#5d5dc0" vector-effect="non-scaling-stroke" d="
  M 204.69 201.02
  Q 188.11 204.48 166.49 204.65
  Q 138.37 204.86 113.03 204.58
  A 0.19 0.18 79.9 0 0 112.86 204.83
  L 116.01 213.73
  Q 116.09 213.95 116.32 213.95
  Q 156.27 214.23 177.49 213.77
  Q 190.01 213.49 205.32 210.27"
/>
<path stroke="#d36b92" vector-effect="non-scaling-stroke" d="
  M 205.32 210.27
  Q 206.14 211.55 206.88 213.01
  C 209.73 218.64 215.33 222.46 221.78 224.85
  Q 232.66 228.88 244.03 231.61
  Q 261.07 235.70 278.00 240.34"
/>
<path stroke="#5d5d80" vector-effect="non-scaling-stroke" d="
  M 278.00 240.34
  L 269.70 240.33
  Q 268.98 240.33 269.16 241.02
  C 269.72 243.31 270.03 245.52 271.15 247.65
  Q 280.67 265.82 287.43 285.24"
/>
<path stroke="#d36b92" vector-effect="non-scaling-stroke" d="
  M 287.43 285.24
  C 277.32 289.70 265.73 290.12 254.95 288.48
  Q 254.15 288.36 254.24 287.56
  L 254.38 286.20
  Q 254.48 285.23 253.59 284.83
  Q 232.22 275.30 226.14 249.34
  Q 226.02 248.81 225.49 248.89
  L 217.30 250.14
  Q 217.16 250.16 217.19 250.31
  C 219.32 261.39 223.89 271.59 232.04 279.44
  Q 232.13 279.53 232.04 279.63
  L 232.04 279.63
  Q 231.97 279.71 231.89 279.64
  Q 223.36 272.79 218.83 263.49
  Q 214.61 254.81 213.42 244.79
  A 1.22 1.22 0.0 0 0 212.45 243.75
  L 206.29 242.60
  A 0.44 0.44 0.0 0 0 205.78 242.90
  Q 199.44 262.97 189.07 281.11
  Q 185.39 287.53 181.18 294.32
  Q 180.88 294.81 181.16 295.31
  L 183.43 299.39
  A 0.64 0.63 -29.4 0 0 184.30 299.63
  C 191.30 295.71 198.98 293.58 206.96 294.56
  Q 212.82 295.27 218.60 296.74
  Q 229.93 299.62 241.62 302.24
  Q 253.38 304.88 267.92 305.43
  C 282.99 306.00 297.37 302.21 309.92 293.17
  Q 322.45 284.15 328.92 269.98"
/>
<path stroke="#5d5d80" vector-effect="non-scaling-stroke" d="
  M 328.92 269.98
  Q 329.57 269.61 331.26 269.78"
/>
<path stroke="#d36b92" vector-effect="non-scaling-stroke" d="
  M 331.26 269.78
  C 325.45 284.38 312.59 295.94 298.64 302.09
  C 287.47 307.02 274.36 308.27 262.25 307.30
  C 248.61 306.21 235.71 302.37 222.70 299.44
  Q 211.56 296.93 202.85 297.00
  Q 195.15 297.06 186.30 301.47
  Q 185.85 301.70 186.02 302.18
  L 188.67 309.53
  A 0.44 0.44 0.0 0 0 189.25 309.80
  C 199.49 305.86 209.98 305.97 220.43 308.42
  Q 231.44 311.00 242.70 313.81
  Q 259.54 318.02 278.17 316.70
  Q 308.03 314.58 328.50 292.49
  Q 333.89 286.67 338.17 279.23"
/>
<path stroke="#5d5d80" vector-effect="non-scaling-stroke" d="
  M 338.17 279.23
  L 338.26 403.92
  A 1.11 1.11 0.0 0 1 337.96 404.68
  L 319.20 423.98
  A 0.47 0.46 -67.8 0 0 319.53 424.77
  L 387.30 424.76
  Q 388.14 424.76 387.61 424.10
  Q 387.42 423.86 387.25 423.61
  Q 386.54 422.55 387.53 423.35
  Q 389.15 424.67 390.76 426.11
  Q 391.25 426.55 390.59 426.55
  Q 357.27 426.46 325.09 426.56
  A 0.18 0.18 0.0 0 0 324.93 426.82
  L 329.49 435.81
  Q 329.59 436.00 329.80 436.00
  L 404.72 436.00
  A 0.28 0.28 0.0 0 0 404.95 435.55
  L 383.42 406.87
  Q 382.84 406.09 382.83 405.12
  L 382.42 270.24
  Q 382.42 269.58 383.08 269.57
  Q 397.85 269.35 411.37 275.39
  Q 412.00 275.68 412.20 276.34
  L 415.21 286.57
  Q 415.31 286.90 415.63 287.03
  L 420.02 288.79
  Q 420.53 289.00 420.85 288.55
  Q 421.92 287.07 422.35 285.70
  Q 426.82 271.41 431.97 262.35
  Q 435.55 256.06 439.59 249.07
  Q 441.39 245.94 442.30 240.85
  Q 442.39 240.35 441.88 240.35
  L 343.57 240.34"
/>
<path stroke="#d36b92" vector-effect="non-scaling-stroke" d="
  M 343.57 240.34
  C 340.36 226.45 331.98 216.75 320.47 209.01
  A 0.31 0.31 0.0 0 0 319.99 209.26
  L 319.99 212.22
  Q 319.99 212.99 319.40 212.49
  Q 306.44 201.43 293.82 197.86
  Q 273.00 191.97 250.98 185.74
  Q 250.49 185.60 250.67 185.12
  L 251.60 182.59"
/>
<path stroke="#5d5dc0" vector-effect="non-scaling-stroke" d="
  M 251.60 182.59
  Q 264.16 165.70 268.51 144.49"
/>
<path stroke="#d36b92" vector-effect="non-scaling-stroke" d="
  M 268.51 144.49
  Q 280.84 149.03 289.67 158.71
  Q 290.03 159.09 290.55 159.04
  Q 291.19 158.97 291.67 158.44
  A 0.64 0.64 0.0 0 1 292.74 158.63
  Q 294.64 163.44 296.29 168.46
  C 296.69 169.70 297.51 170.65 297.98 171.86
  Q 298.21 172.48 298.80 172.17
  C 300.85 171.10 302.35 170.77 303.43 168.37
  Q 304.74 165.48 306.27 162.76"
/>
<path stroke="#d36b92" vector-effect="non-scaling-stroke" d="
  M 306.27 162.76
  L 302.86 171.27
  Q 302.19 172.94 303.89 173.55
  L 308.40 175.15
  Q 310.75 175.99 311.81 173.73
  Q 322.77 150.34 332.90 128.73
  Q 333.08 128.34 333.37 128.04
  Q 333.55 127.86 333.80 127.80
  Q 334.68 127.59 333.87 127.17
  Q 330.67 125.50 328.01 124.49
  Q 326.23 123.82 325.36 125.51
  L 306.27 162.76"
/>
<path stroke="#d36b92" vector-effect="non-scaling-stroke" d="
  M 306.27 162.76
  Q 312.73 146.88 315.40 140.96
  Q 319.85 131.09 325.65 122.09
  A 0.47 0.47 0.0 0 0 325.46 121.41
  L 321.63 119.55
  A 1.24 1.21 42.8 0 0 320.48 119.58
  Q 316.29 121.99 311.47 123.32
  Q 306.42 124.72 300.04 123.11
  Q 285.94 119.54 271.82 116.97"
/>
<path stroke="#5d5dc0" vector-effect="non-scaling-stroke" d="
  M 271.82 116.97
  C 272.81 95.85 269.70 73.40 257.81 55.81
  Q 250.60 45.13 237.76 37.11
  Q 236.73 36.46 237.08 37.62
  C 238.02 40.71 238.72 42.96 241.12 45.45
  Q 251.77 56.52 255.99 67.74
  Q 264.19 89.56 262.50 115.84"
/>
<path stroke="#d36b92" vector-effect="non-scaling-stroke" d="
  M 262.50 115.84
  L 259.20 115.75"
/>
<path stroke="#5d5dc0" vector-effect="non-scaling-stroke" d="
  M 259.20 115.75
  Q 260.48 93.09 255.05 73.76
  Q 249.71 54.78 236.37 40.84
  Q 223.26 27.15 203.57 22.40
  Q 187.46 18.50 170.33 18.52
  Q 140.81 18.55 110.94 18.26
  A 0.38 0.38 0.0 0 0 110.64 18.87
  L 124.74 37.47
  A 3.73 3.70 26.6 0 1 125.50 39.72
  L 125.50 183.32
  A 1.36 1.33 -22.3 0 1 125.08 184.29
  Q 115.88 193.02 106.77 202.26
  Q 106.30 202.74 106.97 202.74
  C 128.63 202.81 150.40 202.53 172.23 202.48
  Q 187.71 202.44 203.13 199.26"
/>
<path stroke="#770e52" vector-effect="non-scaling-stroke" d="
  M 259.20 115.75
  Q 239.65 114.05 222.42 121.94"
/>
<path stroke="#5d5dc0" vector-effect="non-scaling-stroke" d="
  M 222.42 121.94
  C 223.89 103.37 222.90 82.40 216.03 64.76
  C 214.69 61.31 212.78 58.40 211.05 55.20
  Q 210.79 54.71 210.28 54.51
  Q 190.44 46.74 170.20 47.79
  Q 169.71 47.82 169.71 48.31
  L 169.71 185.51
  Q 169.71 186.01 170.22 186.05
  Q 183.42 186.96 195.12 181.51"
/>
<path stroke="#770e52" vector-effect="non-scaling-stroke" d="
  M 195.12 181.51
  Q 196.99 190.84 203.13 199.26"
/>
<path stroke="#770e52" vector-effect="non-scaling-stroke" d="
  M 268.51 144.49
  L 259.33 142.96"
/>
<path stroke="#d36b92" vector-effect="non-scaling-stroke" d="
  M 259.33 142.96
  Q 257.80 142.70 255.69 143.12"
/>
<path stroke="#770e52" vector-effect="non-scaling-stroke" d="
  M 255.69 143.12
  Q 247.94 143.39 242.52 148.26
  Q 234.28 155.66 237.33 166.84
  Q 237.94 169.05 241.78 173.69"
/>
<path stroke="#d36b92" vector-effect="non-scaling-stroke" d="
  M 241.78 173.69
  L 244.31 176.26"
/>
<path stroke="#770e52" vector-effect="non-scaling-stroke" d="
  M 244.31 176.26
  L 251.60 182.59"
/>
<path stroke="#770e12" vector-effect="non-scaling-stroke" d="
  M 343.57 240.34
  L 334.28 240.28"
/>
<path stroke="#d36b92" vector-effect="non-scaling-stroke" d="
  M 334.28 240.28
  Q 332.14 229.82 326.14 221.11
  Q 326.11 221.07 326.06 221.05
  Q 326.01 221.04 325.99 221.09
  Q 325.97 221.14 326.00 221.19
  Q 331.07 229.97 332.46 240.34"
/>
<path stroke="#770e12" vector-effect="non-scaling-stroke" d="
  M 332.46 240.34
  L 278.00 240.34"
/>
<path stroke="#770e52" vector-effect="non-scaling-stroke" d="
  M 205.32 210.27
  L 203.71 204.69
  A 0.58 0.58 0.0 0 1 204.44 203.97
  L 209.13 205.39
  Q 209.73 205.57 209.26 205.16
  L 204.69 201.02"
/>
<path stroke="#d36b92" vector-effect="non-scaling-stroke" d="
  M 222.42 121.94
  Q 212.88 126.81 206.64 133.38
  C 194.68 145.96 191.50 164.14 195.12 181.51"
/>
<path stroke="#770e52" vector-effect="non-scaling-stroke" d="
  M 271.82 116.97
  L 262.50 115.84"
/>
<path stroke="#5d5d80" vector-effect="non-scaling-stroke" d="
  M 334.28 240.28
  L 332.46 240.34"
/>
<path stroke="#770e12" vector-effect="non-scaling-stroke" d="
  M 338.17 279.23
  L 338.19 270.48
  Q 338.19 269.96 337.67 269.95
  L 331.26 269.78"
/>
<path stroke="#770e12" vector-effect="non-scaling-stroke" d="
  M 328.92 269.98
  C 322.09 269.76 314.26 271.50 310.84 277.31
  Q 307.13 283.64 306.52 294.83
  Q 306.50 295.15 306.18 295.16
  L 297.54 295.31
  A 0.29 0.29 0.0 0 1 297.24 294.99
  Q 297.92 287.91 299.86 280.05
  Q 303.20 266.56 316.24 262.28
  Q 322.21 260.33 331.81 260.48"
/>
<path stroke="#5d5d80" vector-effect="non-scaling-stroke" d="
  M 331.81 260.48
  L 334.23 260.20"
/>
<path stroke="#770e12" vector-effect="non-scaling-stroke" d="
  M 334.23 260.20
  L 338.08 260.19
  Q 338.48 260.18 338.37 259.80
  Q 338.33 259.63 338.22 259.49
  Q 338.05 259.28 337.66 259.20
  Q 335.96 258.85 334.22 258.83"
/>
<path stroke="#5d5d80" vector-effect="non-scaling-stroke" d="
  M 334.22 258.83
  Q 333.35 258.58 332.46 258.63"
/>
<path stroke="#770e12" vector-effect="non-scaling-stroke" d="
  M 332.46 258.63
  Q 326.86 258.39 319.00 259.22
  Q 309.79 260.19 303.58 265.33"
/>
<path stroke="#5d5d80" vector-effect="non-scaling-stroke" d="
  M 303.58 265.33
  Q 298.75 270.57 297.49 277.93"
/>
<path stroke="#770e12" vector-effect="non-scaling-stroke" d="
  M 297.49 277.93
  Q 295.96 283.70 295.91 290.10
  Q 295.91 290.72 295.29 290.71
  L 289.74 290.68
  Q 289.27 290.67 289.12 290.23
  L 287.43 285.24"
/>
<path stroke="#5d5dc0" vector-effect="non-scaling-stroke" d="
  M 259.33 142.96
  Q 255.53 161.33 244.31 176.26"
/>
<path stroke="#5d5dc0" vector-effect="non-scaling-stroke" d="
  M 241.78 173.69
  Q 243.88 171.25 244.68 169.95
  Q 252.40 157.43 255.69 143.12"
/>
<path stroke="#d36b92" vector-effect="non-scaling-stroke" d="
  M 334.22 258.83
  Q 334.35 259.46 334.23 260.20"
/>
<path stroke="#d36b92" vector-effect="non-scaling-stroke" d="
  M 297.49 277.93
  Q 302.31 272.56 303.58 265.33"
/>
<path stroke="#d36b92" vector-effect="non-scaling-stroke" d="
  M 332.46 258.63
  Q 331.78 258.99 331.81 260.48"
/>
<path stroke="#5d5d80" vector-effect="non-scaling-stroke" d="
  M 421.84 290.64
  Q 421.32 292.18 422.68 293.05
  L 427.61 296.22
  Q 429.28 297.29 430.00 295.44
  C 435.88 280.29 441.77 265.39 450.90 252.45
  Q 451.28 251.92 450.81 251.48
  L 445.81 246.78
  Q 445.39 246.39 444.88 246.68
  Q 443.02 247.74 441.81 249.35
  Q 436.47 256.47 432.42 264.68
  Q 426.65 276.38 421.84 290.64"
/>
<path stroke="#5d5dc0" vector-effect="non-scaling-stroke" d="
  M 161.10 39.28
  Q 165.70 39.10 170.62 38.56
  C 176.03 37.97 181.60 38.29 187.10 38.84
  Q 187.34 38.86 187.37 38.62
  L 187.37 38.62
  Q 187.39 38.45 187.23 38.41
  Q 173.44 35.47 159.26 35.84
  Q 158.67 35.85 158.67 36.44
  L 158.70 185.85
  Q 158.70 186.24 159.10 186.20
  L 159.79 186.13
  Q 160.18 186.09 160.18 185.71
  L 160.18 40.24
  A 0.96 0.96 0.0 0 1 161.10 39.28"
/>
<path stroke="#d36b92" vector-effect="non-scaling-stroke" d="
  M 257.56 133.78
  L 261.20 133.82"
/>
<path stroke="#770e52" vector-effect="non-scaling-stroke" d="
  M 261.20 133.82
  L 269.61 134.97
  Q 269.77 135.00 269.80 134.84
  L 269.86 134.57
  Q 269.91 134.32 269.66 134.27
  L 261.31 132.38"
/>
<path stroke="#d36b92" vector-effect="non-scaling-stroke" d="
  M 261.31 132.38
  L 257.78 132.11"
/>
<path stroke="#770e52" vector-effect="non-scaling-stroke" d="
  M 257.78 132.11
  C 247.57 131.43 237.38 134.62 230.37 142.21
  C 222.71 150.52 222.19 162.34 228.29 171.76
  Q 229.01 172.89 230.03 173.66
  Q 231.31 174.64 230.41 173.31
  C 226.31 167.24 226.07 158.66 228.29 152.04
  Q 230.55 145.32 236.67 140.41
  Q 245.33 133.47 257.56 133.78"
/>
<path stroke="#5d5dc0" vector-effect="non-scaling-stroke" d="
  M 257.78 132.11
  L 257.56 133.78"
/>
<path stroke="#5d5dc0" vector-effect="non-scaling-stroke" d="
  M 261.31 132.38
  L 261.20 133.82"
/>
<path stroke="#d36b92" vector-effect="non-scaling-stroke" d="
  M 218.72 211.77
  Q 214.24 209.48 218.39 212.33
  Q 224.41 216.45 234.34 218.99
  C 251.11 223.27 267.97 226.90 284.25 232.44
  Q 291.41 234.87 296.20 238.61
  Q 298.81 240.65 296.75 238.05
  C 295.68 236.69 294.69 235.29 293.08 234.52
  C 279.50 228.00 264.24 224.39 248.73 221.37
  C 238.11 219.30 228.17 216.58 218.72 211.77"
/>
<path stroke="#5d5d80" vector-effect="non-scaling-stroke" d="
  M 373.21 260.47
  Q 386.84 259.52 399.71 261.50
  Q 401.87 261.83 399.85 261.00
  C 390.82 257.30 381.68 258.03 372.12 258.89
  Q 371.92 258.91 371.92 259.11
  L 371.76 405.70
  Q 371.76 406.04 372.09 406.12
  L 372.39 406.19
  Q 372.96 406.33 372.96 405.75
  L 372.96 260.73
  A 0.26 0.26 0.0 0 1 373.21 260.47"
/>
</g>
<path fill="#b9b9ff" d="
  M 0.00 0.00
  L 547.00 0.00
  L 547.00 456.00
  L 0.00 456.00
  L 0.00 0.00
  Z
  M 203.13 199.26
  Q 204.04 199.78 204.69 201.02
  Q 188.11 204.48 166.49 204.65
  Q 138.37 204.86 113.03 204.58
  A 0.19 0.18 79.9 0 0 112.86 204.83
  L 116.01 213.73
  Q 116.09 213.95 116.32 213.95
  Q 156.27 214.23 177.49 213.77
  Q 190.01 213.49 205.32 210.27
  Q 206.14 211.55 206.88 213.01
  C 209.73 218.64 215.33 222.46 221.78 224.85
  Q 232.66 228.88 244.03 231.61
  Q 261.07 235.70 278.00 240.34
  L 269.70 240.33
  Q 268.98 240.33 269.16 241.02
  C 269.72 243.31 270.03 245.52 271.15 247.65
  Q 280.67 265.82 287.43 285.24
  C 277.32 289.70 265.73 290.12 254.95 288.48
  Q 254.15 288.36 254.24 287.56
  L 254.38 286.20
  Q 254.48 285.23 253.59 284.83
  Q 232.22 275.30 226.14 249.34
  Q 226.02 248.81 225.49 248.89
  L 217.30 250.14
  Q 217.16 250.16 217.19 250.31
  C 219.32 261.39 223.89 271.59 232.04 279.44
  Q 232.13 279.53 232.04 279.63
  L 232.04 279.63
  Q 231.97 279.71 231.89 279.64
  Q 223.36 272.79 218.83 263.49
  Q 214.61 254.81 213.42 244.79
  A 1.22 1.22 0.0 0 0 212.45 243.75
  L 206.29 242.60
  A 0.44 0.44 0.0 0 0 205.78 242.90
  Q 199.44 262.97 189.07 281.11
  Q 185.39 287.53 181.18 294.32
  Q 180.88 294.81 181.16 295.31
  L 183.43 299.39
  A 0.64 0.63 -29.4 0 0 184.30 299.63
  C 191.30 295.71 198.98 293.58 206.96 294.56
  Q 212.82 295.27 218.60 296.74
  Q 229.93 299.62 241.62 302.24
  Q 253.38 304.88 267.92 305.43
  C 282.99 306.00 297.37 302.21 309.92 293.17
  Q 322.45 284.15 328.92 269.98
  Q 329.57 269.61 331.26 269.78
  C 325.45 284.38 312.59 295.94 298.64 302.09
  C 287.47 307.02 274.36 308.27 262.25 307.30
  C 248.61 306.21 235.71 302.37 222.70 299.44
  Q 211.56 296.93 202.85 297.00
  Q 195.15 297.06 186.30 301.47
  Q 185.85 301.70 186.02 302.18
  L 188.67 309.53
  A 0.44 0.44 0.0 0 0 189.25 309.80
  C 199.49 305.86 209.98 305.97 220.43 308.42
  Q 231.44 311.00 242.70 313.81
  Q 259.54 318.02 278.17 316.70
  Q 308.03 314.58 328.50 292.49
  Q 333.89 286.67 338.17 279.23
  L 338.26 403.92
  A 1.11 1.11 0.0 0 1 337.96 404.68
  L 319.20 423.98
  A 0.47 0.46 -67.8 0 0 319.53 424.77
  L 387.30 424.76
  Q 388.14 424.76 387.61 424.10
  Q 387.42 423.86 387.25 423.61
  Q 386.54 422.55 387.53 423.35
  Q 389.15 424.67 390.76 426.11
  Q 391.25 426.55 390.59 426.55
  Q 357.27 426.46 325.09 426.56
  A 0.18 0.18 0.0 0 0 324.93 426.82
  L 329.49 435.81
  Q 329.59 436.00 329.80 436.00
  L 404.72 436.00
  A 0.28 0.28 0.0 0 0 404.95 435.55
  L 383.42 406.87
  Q 382.84 406.09 382.83 405.12
  L 382.42 270.24
  Q 382.42 269.58 383.08 269.57
  Q 397.85 269.35 411.37 275.39
  Q 412.00 275.68 412.20 276.34
  L 415.21 286.57
  Q 415.31 286.90 415.63 287.03
  L 420.02 288.79
  Q 420.53 289.00 420.85 288.55
  Q 421.92 287.07 422.35 285.70
  Q 426.82 271.41 431.97 262.35
  Q 435.55 256.06 439.59 249.07
  Q 441.39 245.94 442.30 240.85
  Q 442.39 240.35 441.88 240.35
  L 343.57 240.34
  C 340.36 226.45 331.98 216.75 320.47 209.01
  A 0.31 0.31 0.0 0 0 319.99 209.26
  L 319.99 212.22
  Q 319.99 212.99 319.40 212.49
  Q 306.44 201.43 293.82 197.86
  Q 273.00 191.97 250.98 185.74
  Q 250.49 185.60 250.67 185.12
  L 251.60 182.59
  Q 264.16 165.70 268.51 144.49
  Q 280.84 149.03 289.67 158.71
  Q 290.03 159.09 290.55 159.04
  Q 291.19 158.97 291.67 158.44
  A 0.64 0.64 0.0 0 1 292.74 158.63
  Q 294.64 163.44 296.29 168.46
  C 296.69 169.70 297.51 170.65 297.98 171.86
  Q 298.21 172.48 298.80 172.17
  C 300.85 171.10 302.35 170.77 303.43 168.37
  Q 304.74 165.48 306.27 162.76
  L 302.86 171.27
  Q 302.19 172.94 303.89 173.55
  L 308.40 175.15
  Q 310.75 175.99 311.81 173.73
  Q 322.77 150.34 332.90 128.73
  Q 333.08 128.34 333.37 128.04
  Q 333.55 127.86 333.80 127.80
  Q 334.68 127.59 333.87 127.17
  Q 330.67 125.50 328.01 124.49
  Q 326.23 123.82 325.36 125.51
  L 306.27 162.76
  Q 312.73 146.88 315.40 140.96
  Q 319.85 131.09 325.65 122.09
  A 0.47 0.47 0.0 0 0 325.46 121.41
  L 321.63 119.55
  A 1.24 1.21 42.8 0 0 320.48 119.58
  Q 316.29 121.99 311.47 123.32
  Q 306.42 124.72 300.04 123.11
  Q 285.94 119.54 271.82 116.97
  C 272.81 95.85 269.70 73.40 257.81 55.81
  Q 250.60 45.13 237.76 37.11
  Q 236.73 36.46 237.08 37.62
  C 238.02 40.71 238.72 42.96 241.12 45.45
  Q 251.77 56.52 255.99 67.74
  Q 264.19 89.56 262.50 115.84
  L 259.20 115.75
  Q 260.48 93.09 255.05 73.76
  Q 249.71 54.78 236.37 40.84
  Q 223.26 27.15 203.57 22.40
  Q 187.46 18.50 170.33 18.52
  Q 140.81 18.55 110.94 18.26
  A 0.38 0.38 0.0 0 0 110.64 18.87
  L 124.74 37.47
  A 3.73 3.70 26.6 0 1 125.50 39.72
  L 125.50 183.32
  A 1.36 1.33 -22.3 0 1 125.08 184.29
  Q 115.88 193.02 106.77 202.26
  Q 106.30 202.74 106.97 202.74
  C 128.63 202.81 150.40 202.53 172.23 202.48
  Q 187.71 202.44 203.13 199.26
  Z
  M 421.84 290.64
  Q 421.32 292.18 422.68 293.05
  L 427.61 296.22
  Q 429.28 297.29 430.00 295.44
  C 435.88 280.29 441.77 265.39 450.90 252.45
  Q 451.28 251.92 450.81 251.48
  L 445.81 246.78
  Q 445.39 246.39 444.88 246.68
  Q 443.02 247.74 441.81 249.35
  Q 436.47 256.47 432.42 264.68
  Q 426.65 276.38 421.84 290.64
  Z"
/>
<path fill="#000080" d="
  M 259.20 115.75
  Q 239.65 114.05 222.42 121.94
  C 223.89 103.37 222.90 82.40 216.03 64.76
  C 214.69 61.31 212.78 58.40 211.05 55.20
  Q 210.79 54.71 210.28 54.51
  Q 190.44 46.74 170.20 47.79
  Q 169.71 47.82 169.71 48.31
  L 169.71 185.51
  Q 169.71 186.01 170.22 186.05
  Q 183.42 186.96 195.12 181.51
  Q 196.99 190.84 203.13 199.26
  Q 187.71 202.44 172.23 202.48
  C 150.40 202.53 128.63 202.81 106.97 202.74
  Q 106.30 202.74 106.77 202.26
  Q 115.88 193.02 125.08 184.29
  A 1.36 1.33 -22.3 0 0 125.50 183.32
  L 125.50 39.72
  A 3.73 3.70 26.6 0 0 124.74 37.47
  L 110.64 18.87
  A 0.38 0.38 0.0 0 1 110.94 18.26
  Q 140.81 18.55 170.33 18.52
  Q 187.46 18.50 203.57 22.40
  Q 223.26 27.15 236.37 40.84
  Q 249.71 54.78 255.05 73.76
  Q 260.48 93.09 259.20 115.75
  Z
  M 161.10 39.28
  Q 165.70 39.10 170.62 38.56
  C 176.03 37.97 181.60 38.29 187.10 38.84
  Q 187.34 38.86 187.37 38.62
  L 187.37 38.62
  Q 187.39 38.45 187.23 38.41
  Q 173.44 35.47 159.26 35.84
  Q 158.67 35.85 158.67 36.44
  L 158.70 185.85
  Q 158.70 186.24 159.10 186.20
  L 159.79 186.13
  Q 160.18 186.09 160.18 185.71
  L 160.18 40.24
  A 0.96 0.96 0.0 0 1 161.10 39.28
  Z"
/>
<path fill="#b9b9ff" d="
  M 161.10 39.28
  A 0.96 0.96 0.0 0 0 160.18 40.24
  L 160.18 185.71
  Q 160.18 186.09 159.79 186.13
  L 159.10 186.20
  Q 158.70 186.24 158.70 185.85
  L 158.67 36.44
  Q 158.67 35.85 159.26 35.84
  Q 173.44 35.47 187.23 38.41
  Q 187.39 38.45 187.37 38.62
  L 187.37 38.62
  Q 187.34 38.86 187.10 38.84
  C 181.60 38.29 176.03 37.97 170.62 38.56
  Q 165.70 39.10 161.10 39.28
  Z"
/>
<path fill="#000080" d="
  M 271.82 116.97
  L 262.50 115.84
  Q 264.19 89.56 255.99 67.74
  Q 251.77 56.52 241.12 45.45
  C 238.72 42.96 238.02 40.71 237.08 37.62
  Q 236.73 36.46 237.76 37.11
  Q 250.60 45.13 257.81 55.81
  C 269.70 73.40 272.81 95.85 271.82 116.97
  Z"
/>
<path fill="#b9b9ff" d="
  M 222.42 121.94
  Q 212.88 126.81 206.64 133.38
  C 194.68 145.96 191.50 164.14 195.12 181.51
  Q 183.42 186.96 170.22 186.05
  Q 169.71 186.01 169.71 185.51
  L 169.71 48.31
  Q 169.71 47.82 170.20 47.79
  Q 190.44 46.74 210.28 54.51
  Q 210.79 54.71 211.05 55.20
  C 212.78 58.40 214.69 61.31 216.03 64.76
  C 222.90 82.40 223.89 103.37 222.42 121.94
  Z"
/>
<path fill="#ed1c24" d="
  M 259.20 115.75
  L 262.50 115.84
  L 271.82 116.97
  Q 285.94 119.54 300.04 123.11
  Q 306.42 124.72 311.47 123.32
  Q 316.29 121.99 320.48 119.58
  A 1.24 1.21 42.8 0 1 321.63 119.55
  L 325.46 121.41
  A 0.47 0.47 0.0 0 1 325.65 122.09
  Q 319.85 131.09 315.40 140.96
  Q 312.73 146.88 306.27 162.76
  Q 304.74 165.48 303.43 168.37
  C 302.35 170.77 300.85 171.10 298.80 172.17
  Q 298.21 172.48 297.98 171.86
  C 297.51 170.65 296.69 169.70 296.29 168.46
  Q 294.64 163.44 292.74 158.63
  A 0.64 0.64 0.0 0 0 291.67 158.44
  Q 291.19 158.97 290.55 159.04
  Q 290.03 159.09 289.67 158.71
  Q 280.84 149.03 268.51 144.49
  L 259.33 142.96
  Q 257.80 142.70 255.69 143.12
  Q 247.94 143.39 242.52 148.26
  Q 234.28 155.66 237.33 166.84
  Q 237.94 169.05 241.78 173.69
  L 244.31 176.26
  L 251.60 182.59
  L 250.67 185.12
  Q 250.49 185.60 250.98 185.74
  Q 273.00 191.97 293.82 197.86
  Q 306.44 201.43 319.40 212.49
  Q 319.99 212.99 319.99 212.22
  L 319.99 209.26
  A 0.31 0.31 0.0 0 1 320.47 209.01
  C 331.98 216.75 340.36 226.45 343.57 240.34
  L 334.28 240.28
  Q 332.14 229.82 326.14 221.11
  Q 326.11 221.07 326.06 221.05
  Q 326.01 221.04 325.99 221.09
  Q 325.97 221.14 326.00 221.19
  Q 331.07 229.97 332.46 240.34
  L 278.00 240.34
  Q 261.07 235.70 244.03 231.61
  Q 232.66 228.88 221.78 224.85
  C 215.33 222.46 209.73 218.64 206.88 213.01
  Q 206.14 211.55 205.32 210.27
  L 203.71 204.69
  A 0.58 0.58 0.0 0 1 204.44 203.97
  L 209.13 205.39
  Q 209.73 205.57 209.26 205.16
  L 204.69 201.02
  Q 204.04 199.78 203.13 199.26
  Q 196.99 190.84 195.12 181.51
  C 191.50 164.14 194.68 145.96 206.64 133.38
  Q 212.88 126.81 222.42 121.94
  Q 239.65 114.05 259.20 115.75
  Z
  M 257.56 133.78
  L 261.20 133.82
  L 269.61 134.97
  Q 269.77 135.00 269.80 134.84
  L 269.86 134.57
  Q 269.91 134.32 269.66 134.27
  L 261.31 132.38
  L 257.78 132.11
  C 247.57 131.43 237.38 134.62 230.37 142.21
  C 222.71 150.52 222.19 162.34 228.29 171.76
  Q 229.01 172.89 230.03 173.66
  Q 231.31 174.64 230.41 173.31
  C 226.31 167.24 226.07 158.66 228.29 152.04
  Q 230.55 145.32 236.67 140.41
  Q 245.33 133.47 257.56 133.78
  Z
  M 218.72 211.77
  Q 214.24 209.48 218.39 212.33
  Q 224.41 216.45 234.34 218.99
  C 251.11 223.27 267.97 226.90 284.25 232.44
  Q 291.41 234.87 296.20 238.61
  Q 298.81 240.65 296.75 238.05
  C 295.68 236.69 294.69 235.29 293.08 234.52
  C 279.50 228.00 264.24 224.39 248.73 221.37
  C 238.11 219.30 228.17 216.58 218.72 211.77
  Z"
/>
<path fill="#ed1c24" d="
  M 306.27 162.76
  L 325.36 125.51
  Q 326.23 123.82 328.01 124.49
  Q 330.67 125.50 333.87 127.17
  Q 334.68 127.59 333.80 127.80
  Q 333.55 127.86 333.37 128.04
  Q 333.08 128.34 332.90 128.73
  Q 322.77 150.34 311.81 173.73
  Q 310.75 175.99 308.40 175.15
  L 303.89 173.55
  Q 302.19 172.94 302.86 171.27
  L 306.27 162.76
  Z"
/>
<path fill="#000080" d="
  M 257.78 132.11
  L 257.56 133.78
  Q 245.33 133.47 236.67 140.41
  Q 230.55 145.32 228.29 152.04
  C 226.07 158.66 226.31 167.24 230.41 173.31
  Q 231.31 174.64 230.03 173.66
  Q 229.01 172.89 228.29 171.76
  C 222.19 162.34 222.71 150.52 230.37 142.21
  C 237.38 134.62 247.57 131.43 257.78 132.11
  Z"
/>
<path fill="#b9b9ff" d="
  M 261.31 132.38
  L 261.20 133.82
  L 257.56 133.78
  L 257.78 132.11
  L 261.31 132.38
  Z"
/>
<path fill="#000080" d="
  M 261.31 132.38
  L 269.66 134.27
  Q 269.91 134.32 269.86 134.57
  L 269.80 134.84
  Q 269.77 135.00 269.61 134.97
  L 261.20 133.82
  L 261.31 132.38
  Z"
/>
<path fill="#b9b9ff" d="
  M 259.33 142.96
  Q 255.53 161.33 244.31 176.26
  L 241.78 173.69
  Q 243.88 171.25 244.68 169.95
  Q 252.40 157.43 255.69 143.12
  Q 257.80 142.70 259.33 142.96
  Z"
/>
<path fill="#000080" d="
  M 255.69 143.12
  Q 252.40 157.43 244.68 169.95
  Q 243.88 171.25 241.78 173.69
  Q 237.94 169.05 237.33 166.84
  Q 234.28 155.66 242.52 148.26
  Q 247.94 143.39 255.69 143.12
  Z"
/>
<path fill="#000080" d="
  M 259.33 142.96
  L 268.51 144.49
  Q 264.16 165.70 251.60 182.59
  L 244.31 176.26
  Q 255.53 161.33 259.33 142.96
  Z"
/>
<path fill="#000080" d="
  M 204.69 201.02
  L 209.26 205.16
  Q 209.73 205.57 209.13 205.39
  L 204.44 203.97
  A 0.58 0.58 0.0 0 0 203.71 204.69
  L 205.32 210.27
  Q 190.01 213.49 177.49 213.77
  Q 156.27 214.23 116.32 213.95
  Q 116.09 213.95 116.01 213.73
  L 112.86 204.83
  A 0.19 0.18 79.9 0 1 113.03 204.58
  Q 138.37 204.86 166.49 204.65
  Q 188.11 204.48 204.69 201.02
  Z"
/>
<path fill="#b9b9ff" d="
  M 218.72 211.77
  C 228.17 216.58 238.11 219.30 248.73 221.37
  C 264.24 224.39 279.50 228.00 293.08 234.52
  C 294.69 235.29 295.68 236.69 296.75 238.05
  Q 298.81 240.65 296.20 238.61
  Q 291.41 234.87 284.25 232.44
  C 267.97 226.90 251.11 223.27 234.34 218.99
  Q 224.41 216.45 218.39 212.33
  Q 214.24 209.48 218.72 211.77
  Z"
/>
<path fill="#b9b9ff" d="
  M 334.28 240.28
  L 332.46 240.34
  Q 331.07 229.97 326.00 221.19
  Q 325.97 221.14 325.99 221.09
  Q 326.01 221.04 326.06 221.05
  Q 326.11 221.07 326.14 221.11
  Q 332.14 229.82 334.28 240.28
  Z"
/>
<path fill="#000000" d="
  M 278.00 240.34
  L 332.46 240.34
  L 334.28 240.28
  L 343.57 240.34
  L 441.88 240.35
  Q 442.39 240.35 442.30 240.85
  Q 441.39 245.94 439.59 249.07
  Q 435.55 256.06 431.97 262.35
  Q 426.82 271.41 422.35 285.70
  Q 421.92 287.07 420.85 288.55
  Q 420.53 289.00 420.02 288.79
  L 415.63 287.03
  Q 415.31 286.90 415.21 286.57
  L 412.20 276.34
  Q 412.00 275.68 411.37 275.39
  Q 397.85 269.35 383.08 269.57
  Q 382.42 269.58 382.42 270.24
  L 382.83 405.12
  Q 382.84 406.09 383.42 406.87
  L 404.95 435.55
  A 0.28 0.28 0.0 0 1 404.72 436.00
  L 329.80 436.00
  Q 329.59 436.00 329.49 435.81
  L 324.93 426.82
  A 0.18 0.18 0.0 0 1 325.09 426.56
  Q 357.27 426.46 390.59 426.55
  Q 391.25 426.55 390.76 426.11
  Q 389.15 424.67 387.53 423.35
  Q 386.54 422.55 387.25 423.61
  Q 387.42 423.86 387.61 424.10
  Q 388.14 424.76 387.30 424.76
  L 319.53 424.77
  A 0.47 0.46 -67.8 0 1 319.20 423.98
  L 337.96 404.68
  A 1.11 1.11 0.0 0 0 338.26 403.92
  L 338.17 279.23
  L 338.19 270.48
  Q 338.19 269.96 337.67 269.95
  L 331.26 269.78
  Q 329.57 269.61 328.92 269.98
  C 322.09 269.76 314.26 271.50 310.84 277.31
  Q 307.13 283.64 306.52 294.83
  Q 306.50 295.15 306.18 295.16
  L 297.54 295.31
  A 0.29 0.29 0.0 0 1 297.24 294.99
  Q 297.92 287.91 299.86 280.05
  Q 303.20 266.56 316.24 262.28
  Q 322.21 260.33 331.81 260.48
  L 334.23 260.20
  L 338.08 260.19
  Q 338.48 260.18 338.37 259.80
  Q 338.33 259.63 338.22 259.49
  Q 338.05 259.28 337.66 259.20
  Q 335.96 258.85 334.22 258.83
  Q 333.35 258.58 332.46 258.63
  Q 326.86 258.39 319.00 259.22
  Q 309.79 260.19 303.58 265.33
  Q 298.75 270.57 297.49 277.93
  Q 295.96 283.70 295.91 290.10
  Q 295.91 290.72 295.29 290.71
  L 289.74 290.68
  Q 289.27 290.67 289.12 290.23
  L 287.43 285.24
  Q 280.67 265.82 271.15 247.65
  C 270.03 245.52 269.72 243.31 269.16 241.02
  Q 268.98 240.33 269.70 240.33
  L 278.00 240.34
  Z
  M 373.21 260.47
  Q 386.84 259.52 399.71 261.50
  Q 401.87 261.83 399.85 261.00
  C 390.82 257.30 381.68 258.03 372.12 258.89
  Q 371.92 258.91 371.92 259.11
  L 371.76 405.70
  Q 371.76 406.04 372.09 406.12
  L 372.39 406.19
  Q 372.96 406.33 372.96 405.75
  L 372.96 260.73
  A 0.26 0.26 0.0 0 1 373.21 260.47
  Z"
/>
<path fill="#ed1c24" d="
  M 287.43 285.24
  L 289.12 290.23
  Q 289.27 290.67 289.74 290.68
  L 295.29 290.71
  Q 295.91 290.72 295.91 290.10
  Q 295.96 283.70 297.49 277.93
  Q 302.31 272.56 303.58 265.33
  Q 309.79 260.19 319.00 259.22
  Q 326.86 258.39 332.46 258.63
  Q 331.78 258.99 331.81 260.48
  Q 322.21 260.33 316.24 262.28
  Q 303.20 266.56 299.86 280.05
  Q 297.92 287.91 297.24 294.99
  A 0.29 0.29 0.0 0 0 297.54 295.31
  L 306.18 295.16
  Q 306.50 295.15 306.52 294.83
  Q 307.13 283.64 310.84 277.31
  C 314.26 271.50 322.09 269.76 328.92 269.98
  Q 322.45 284.15 309.92 293.17
  C 297.37 302.21 282.99 306.00 267.92 305.43
  Q 253.38 304.88 241.62 302.24
  Q 229.93 299.62 218.60 296.74
  Q 212.82 295.27 206.96 294.56
  C 198.98 293.58 191.30 295.71 184.30 299.63
  A 0.64 0.63 -29.4 0 1 183.43 299.39
  L 181.16 295.31
  Q 180.88 294.81 181.18 294.32
  Q 185.39 287.53 189.07 281.11
  Q 199.44 262.97 205.78 242.90
  A 0.44 0.44 0.0 0 1 206.29 242.60
  L 212.45 243.75
  A 1.22 1.22 0.0 0 1 213.42 244.79
  Q 214.61 254.81 218.83 263.49
  Q 223.36 272.79 231.89 279.64
  Q 231.97 279.71 232.04 279.63
  L 232.04 279.63
  Q 232.13 279.53 232.04 279.44
  C 223.89 271.59 219.32 261.39 217.19 250.31
  Q 217.16 250.16 217.30 250.14
  L 225.49 248.89
  Q 226.02 248.81 226.14 249.34
  Q 232.22 275.30 253.59 284.83
  Q 254.48 285.23 254.38 286.20
  L 254.24 287.56
  Q 254.15 288.36 254.95 288.48
  C 265.73 290.12 277.32 289.70 287.43 285.24
  Z"
/>
<path fill="#000000" d="
  M 421.84 290.64
  Q 426.65 276.38 432.42 264.68
  Q 436.47 256.47 441.81 249.35
  Q 443.02 247.74 444.88 246.68
  Q 445.39 246.39 445.81 246.78
  L 450.81 251.48
  Q 451.28 251.92 450.90 252.45
  C 441.77 265.39 435.88 280.29 430.00 295.44
  Q 429.28 297.29 427.61 296.22
  L 422.68 293.05
  Q 421.32 292.18 421.84 290.64
  Z"
/>
<path fill="#b9b9ff" d="
  M 373.21 260.47
  A 0.26 0.26 0.0 0 0 372.96 260.73
  L 372.96 405.75
  Q 372.96 406.33 372.39 406.19
  L 372.09 406.12
  Q 371.76 406.04 371.76 405.70
  L 371.92 259.11
  Q 371.92 258.91 372.12 258.89
  C 381.68 258.03 390.82 257.30 399.85 261.00
  Q 401.87 261.83 399.71 261.50
  Q 386.84 259.52 373.21 260.47
  Z"
/>
<path fill="#b9b9ff" d="
  M 332.46 258.63
  Q 333.35 258.58 334.22 258.83
  Q 334.35 259.46 334.23 260.20
  L 331.81 260.48
  Q 331.78 258.99 332.46 258.63
  Z"
/>
<path fill="#ed1c24" d="
  M 334.22 258.83
  Q 335.96 258.85 337.66 259.20
  Q 338.05 259.28 338.22 259.49
  Q 338.33 259.63 338.37 259.80
  Q 338.48 260.18 338.08 260.19
  L 334.23 260.20
  Q 334.35 259.46 334.22 258.83
  Z"
/>
<path fill="#b9b9ff" d="
  M 303.58 265.33
  Q 302.31 272.56 297.49 277.93
  Q 298.75 270.57 303.58 265.33
  Z"
/>
<path fill="#ed1c24" d="
  M 331.26 269.78
  L 337.67 269.95
  Q 338.19 269.96 338.19 270.48
  L 338.17 279.23
  Q 333.89 286.67 328.50 292.49
  Q 308.03 314.58 278.17 316.70
  Q 259.54 318.02 242.70 313.81
  Q 231.44 311.00 220.43 308.42
  C 209.98 305.97 199.49 305.86 189.25 309.80
  A 0.44 0.44 0.0 0 1 188.67 309.53
  L 186.02 302.18
  Q 185.85 301.70 186.30 301.47
  Q 195.15 297.06 202.85 297.00
  Q 211.56 296.93 222.70 299.44
  C 235.71 302.37 248.61 306.21 262.25 307.30
  C 274.36 308.27 287.47 307.02 298.64 302.09
  C 312.59 295.94 325.45 284.38 331.26 269.78
  Z"
/>
</svg>
